<mxfile host="Electron" modified="2023-04-04T12:27:31.859Z" agent="Mozilla/5.0 (Windows NT 10.0; Win64; x64) AppleWebKit/537.36 (KHTML, like Gecko) draw.io/21.1.2 Chrome/106.0.5249.199 Electron/21.4.3 Safari/537.36" etag="jP8q7Ne9p605wYQp12DF" version="21.1.2" type="device">
  <diagram name="Seite-1" id="Lh3sbkql0QFoovG12SqF">
    <mxGraphModel dx="3033" dy="1471" grid="1" gridSize="10" guides="1" tooltips="1" connect="1" arrows="1" fold="1" page="1" pageScale="1" pageWidth="827" pageHeight="1169" math="0" shadow="0">
      <root>
        <mxCell id="0" />
        <mxCell id="1" parent="0" />
        <mxCell id="EkXlbH_kKpJiGOCdJ37Q-49" value="" style="rounded=0;whiteSpace=wrap;html=1;" vertex="1" parent="1">
          <mxGeometry x="880" y="380" width="530" height="130" as="geometry" />
        </mxCell>
        <mxCell id="EkXlbH_kKpJiGOCdJ37Q-100" value="" style="rounded=0;whiteSpace=wrap;html=1;fillColor=#fff2cc;strokeColor=#d6b656;" vertex="1" parent="1">
          <mxGeometry x="920" y="410" width="480" height="90" as="geometry" />
        </mxCell>
        <mxCell id="EkXlbH_kKpJiGOCdJ37Q-48" value="" style="rounded=0;whiteSpace=wrap;html=1;" vertex="1" parent="1">
          <mxGeometry x="250" y="420" width="530" height="130" as="geometry" />
        </mxCell>
        <mxCell id="EkXlbH_kKpJiGOCdJ37Q-1" value="" style="rounded=0;whiteSpace=wrap;html=1;" vertex="1" parent="1">
          <mxGeometry x="140" y="145" width="640" height="225" as="geometry" />
        </mxCell>
        <mxCell id="EkXlbH_kKpJiGOCdJ37Q-2" value="Kotlin Multiplatform shared module" style="text;html=1;strokeColor=none;fillColor=none;align=center;verticalAlign=middle;whiteSpace=wrap;rounded=0;" vertex="1" parent="1">
          <mxGeometry x="570" y="145" width="210" height="30" as="geometry" />
        </mxCell>
        <mxCell id="EkXlbH_kKpJiGOCdJ37Q-3" value="" style="rounded=0;whiteSpace=wrap;html=1;fillColor=#fff2cc;strokeColor=#d6b656;" vertex="1" parent="1">
          <mxGeometry x="270" y="450" width="490" height="80" as="geometry" />
        </mxCell>
        <mxCell id="EkXlbH_kKpJiGOCdJ37Q-4" value="Mobile App" style="text;html=1;strokeColor=none;fillColor=none;align=center;verticalAlign=middle;whiteSpace=wrap;rounded=0;" vertex="1" parent="1">
          <mxGeometry x="660" y="420" width="120" height="30" as="geometry" />
        </mxCell>
        <mxCell id="EkXlbH_kKpJiGOCdJ37Q-5" value="FeatureA" style="rounded=1;whiteSpace=wrap;html=1;fillColor=#dae8fc;strokeColor=#6c8ebf;" vertex="1" parent="1">
          <mxGeometry x="350" y="473" width="100" height="40" as="geometry" />
        </mxCell>
        <mxCell id="EkXlbH_kKpJiGOCdJ37Q-6" value="FeatureB" style="rounded=1;whiteSpace=wrap;html=1;fillColor=#d5e8d4;strokeColor=#82b366;" vertex="1" parent="1">
          <mxGeometry x="460" y="473" width="100" height="40" as="geometry" />
        </mxCell>
        <mxCell id="EkXlbH_kKpJiGOCdJ37Q-8" value="FeatureC" style="rounded=1;whiteSpace=wrap;html=1;fillColor=#e1d5e7;strokeColor=#9673a6;" vertex="1" parent="1">
          <mxGeometry x="570" y="474" width="100" height="40" as="geometry" />
        </mxCell>
        <mxCell id="EkXlbH_kKpJiGOCdJ37Q-10" value="" style="rounded=0;whiteSpace=wrap;html=1;fillColor=#fff2cc;strokeColor=#d6b656;" vertex="1" parent="1">
          <mxGeometry x="160" y="182.5" width="600" height="167.5" as="geometry" />
        </mxCell>
        <mxCell id="EkXlbH_kKpJiGOCdJ37Q-11" value="MainStore" style="text;html=1;strokeColor=none;fillColor=none;align=center;verticalAlign=middle;whiteSpace=wrap;rounded=0;" vertex="1" parent="1">
          <mxGeometry x="160" y="182.5" width="90" height="30" as="geometry" />
        </mxCell>
        <mxCell id="EkXlbH_kKpJiGOCdJ37Q-13" value="" style="rounded=0;whiteSpace=wrap;html=1;fillColor=#dae8fc;strokeColor=#6c8ebf;" vertex="1" parent="1">
          <mxGeometry x="300" y="215" width="150" height="75" as="geometry" />
        </mxCell>
        <mxCell id="EkXlbH_kKpJiGOCdJ37Q-15" value="" style="rounded=0;whiteSpace=wrap;html=1;fillColor=#d5e8d4;strokeColor=#82b366;" vertex="1" parent="1">
          <mxGeometry x="460" y="215" width="280" height="115" as="geometry" />
        </mxCell>
        <mxCell id="EkXlbH_kKpJiGOCdJ37Q-16" value="" style="rounded=0;whiteSpace=wrap;html=1;fillColor=#e1d5e7;strokeColor=#9673a6;" vertex="1" parent="1">
          <mxGeometry x="590" y="242.5" width="130" height="77.5" as="geometry" />
        </mxCell>
        <mxCell id="EkXlbH_kKpJiGOCdJ37Q-17" value="AStore" style="text;html=1;strokeColor=none;fillColor=none;align=center;verticalAlign=middle;whiteSpace=wrap;rounded=0;" vertex="1" parent="1">
          <mxGeometry x="300" y="215" width="80" height="30" as="geometry" />
        </mxCell>
        <mxCell id="EkXlbH_kKpJiGOCdJ37Q-18" value="BStore" style="text;html=1;strokeColor=none;fillColor=none;align=center;verticalAlign=middle;whiteSpace=wrap;rounded=0;" vertex="1" parent="1">
          <mxGeometry x="460" y="215" width="80" height="30" as="geometry" />
        </mxCell>
        <mxCell id="EkXlbH_kKpJiGOCdJ37Q-19" value="CStore" style="text;html=1;strokeColor=none;fillColor=none;align=center;verticalAlign=middle;whiteSpace=wrap;rounded=0;" vertex="1" parent="1">
          <mxGeometry x="590" y="242.5" width="80" height="30" as="geometry" />
        </mxCell>
        <mxCell id="EkXlbH_kKpJiGOCdJ37Q-20" value="state" style="rounded=0;whiteSpace=wrap;html=1;fillColor=#f5f5f5;fontColor=#333333;strokeColor=#666666;" vertex="1" parent="1">
          <mxGeometry x="180" y="215" width="50" height="30" as="geometry" />
        </mxCell>
        <mxCell id="EkXlbH_kKpJiGOCdJ37Q-21" value="dipatch()" style="rounded=0;whiteSpace=wrap;html=1;fillColor=#f5f5f5;fontColor=#333333;strokeColor=#666666;" vertex="1" parent="1">
          <mxGeometry x="230" y="215" width="60" height="30" as="geometry" />
        </mxCell>
        <mxCell id="EkXlbH_kKpJiGOCdJ37Q-22" value="state" style="rounded=0;whiteSpace=wrap;html=1;fillColor=#f5f5f5;fontColor=#333333;strokeColor=#666666;" vertex="1" parent="1">
          <mxGeometry x="320" y="245" width="50" height="30" as="geometry" />
        </mxCell>
        <mxCell id="EkXlbH_kKpJiGOCdJ37Q-23" value="dipatch()" style="rounded=0;whiteSpace=wrap;html=1;fillColor=#f5f5f5;fontColor=#333333;strokeColor=#666666;" vertex="1" parent="1">
          <mxGeometry x="370" y="245" width="60" height="30" as="geometry" />
        </mxCell>
        <mxCell id="EkXlbH_kKpJiGOCdJ37Q-24" value="state" style="rounded=0;whiteSpace=wrap;html=1;fillColor=#f5f5f5;fontColor=#333333;strokeColor=#666666;" vertex="1" parent="1">
          <mxGeometry x="470" y="245" width="50" height="30" as="geometry" />
        </mxCell>
        <mxCell id="EkXlbH_kKpJiGOCdJ37Q-25" value="dipatch()" style="rounded=0;whiteSpace=wrap;html=1;fillColor=#f5f5f5;fontColor=#333333;strokeColor=#666666;" vertex="1" parent="1">
          <mxGeometry x="520" y="245" width="60" height="30" as="geometry" />
        </mxCell>
        <mxCell id="EkXlbH_kKpJiGOCdJ37Q-26" value="state" style="rounded=0;whiteSpace=wrap;html=1;fillColor=#f5f5f5;fontColor=#333333;strokeColor=#666666;" vertex="1" parent="1">
          <mxGeometry x="600" y="275" width="50" height="30" as="geometry" />
        </mxCell>
        <mxCell id="EkXlbH_kKpJiGOCdJ37Q-27" value="dipatch()" style="rounded=0;whiteSpace=wrap;html=1;fillColor=#f5f5f5;fontColor=#333333;strokeColor=#666666;" vertex="1" parent="1">
          <mxGeometry x="650" y="275" width="60" height="30" as="geometry" />
        </mxCell>
        <mxCell id="EkXlbH_kKpJiGOCdJ37Q-31" value="" style="endArrow=classic;html=1;rounded=0;exitX=0.75;exitY=0;exitDx=0;exitDy=0;entryX=0.5;entryY=1;entryDx=0;entryDy=0;" edge="1" parent="1" source="EkXlbH_kKpJiGOCdJ37Q-5" target="EkXlbH_kKpJiGOCdJ37Q-23">
          <mxGeometry width="50" height="50" relative="1" as="geometry">
            <mxPoint x="310" y="410" as="sourcePoint" />
            <mxPoint x="460" y="410" as="targetPoint" />
          </mxGeometry>
        </mxCell>
        <mxCell id="EkXlbH_kKpJiGOCdJ37Q-32" value="action" style="text;html=1;align=center;verticalAlign=middle;resizable=0;points=[];autosize=1;strokeColor=none;fillColor=none;rotation=-90;" vertex="1" parent="1">
          <mxGeometry x="370" y="380" width="60" height="30" as="geometry" />
        </mxCell>
        <mxCell id="EkXlbH_kKpJiGOCdJ37Q-33" value="" style="endArrow=classic;html=1;rounded=0;exitX=0.5;exitY=1;exitDx=0;exitDy=0;" edge="1" parent="1" source="EkXlbH_kKpJiGOCdJ37Q-22" target="EkXlbH_kKpJiGOCdJ37Q-5">
          <mxGeometry width="50" height="50" relative="1" as="geometry">
            <mxPoint x="400" y="400" as="sourcePoint" />
            <mxPoint x="550" y="400" as="targetPoint" />
          </mxGeometry>
        </mxCell>
        <mxCell id="EkXlbH_kKpJiGOCdJ37Q-34" value="update" style="text;html=1;align=center;verticalAlign=middle;resizable=0;points=[];autosize=1;strokeColor=none;fillColor=none;rotation=-90;" vertex="1" parent="1">
          <mxGeometry x="330" y="380" width="60" height="30" as="geometry" />
        </mxCell>
        <mxCell id="EkXlbH_kKpJiGOCdJ37Q-35" value="" style="endArrow=classic;html=1;rounded=0;exitX=0;exitY=1;exitDx=0;exitDy=0;entryX=0;entryY=0;entryDx=0;entryDy=0;" edge="1" parent="1" source="EkXlbH_kKpJiGOCdJ37Q-10" target="EkXlbH_kKpJiGOCdJ37Q-3">
          <mxGeometry width="50" height="50" relative="1" as="geometry">
            <mxPoint x="130" y="490" as="sourcePoint" />
            <mxPoint x="180" y="440" as="targetPoint" />
          </mxGeometry>
        </mxCell>
        <mxCell id="EkXlbH_kKpJiGOCdJ37Q-36" value="inject" style="text;html=1;align=center;verticalAlign=middle;resizable=0;points=[];autosize=1;strokeColor=none;fillColor=none;rotation=-90;" vertex="1" parent="1">
          <mxGeometry x="160" y="380" width="50" height="30" as="geometry" />
        </mxCell>
        <mxCell id="EkXlbH_kKpJiGOCdJ37Q-37" value="" style="curved=1;endArrow=none;html=1;rounded=0;exitX=0.5;exitY=0;exitDx=0;exitDy=0;entryX=0.5;entryY=0;entryDx=0;entryDy=0;startArrow=classic;startFill=1;endFill=0;" edge="1" parent="1" source="EkXlbH_kKpJiGOCdJ37Q-23" target="EkXlbH_kKpJiGOCdJ37Q-21">
          <mxGeometry width="50" height="50" relative="1" as="geometry">
            <mxPoint x="390" y="190" as="sourcePoint" />
            <mxPoint x="440" y="140" as="targetPoint" />
            <Array as="points">
              <mxPoint x="370" y="170" />
            </Array>
          </mxGeometry>
        </mxCell>
        <mxCell id="EkXlbH_kKpJiGOCdJ37Q-38" value="onUpdate" style="text;html=1;strokeColor=none;fillColor=none;align=center;verticalAlign=middle;whiteSpace=wrap;rounded=0;" vertex="1" parent="1">
          <mxGeometry x="300" y="175" width="60" height="30" as="geometry" />
        </mxCell>
        <mxCell id="EkXlbH_kKpJiGOCdJ37Q-40" value="" style="curved=1;endArrow=classic;html=1;rounded=0;exitX=1;exitY=1;exitDx=0;exitDy=0;entryX=0.5;entryY=0;entryDx=0;entryDy=0;" edge="1" parent="1" source="EkXlbH_kKpJiGOCdJ37Q-11" target="EkXlbH_kKpJiGOCdJ37Q-25">
          <mxGeometry width="50" height="50" relative="1" as="geometry">
            <mxPoint x="410" y="255" as="sourcePoint" />
            <mxPoint x="270" y="225" as="targetPoint" />
            <Array as="points">
              <mxPoint x="290" y="170" />
              <mxPoint x="440" y="170" />
              <mxPoint x="550" y="200" />
            </Array>
          </mxGeometry>
        </mxCell>
        <mxCell id="EkXlbH_kKpJiGOCdJ37Q-41" value="action" style="text;html=1;strokeColor=none;fillColor=none;align=center;verticalAlign=middle;whiteSpace=wrap;rounded=0;" vertex="1" parent="1">
          <mxGeometry x="390" y="145" width="60" height="30" as="geometry" />
        </mxCell>
        <mxCell id="EkXlbH_kKpJiGOCdJ37Q-42" value="FeatureMain" style="text;html=1;strokeColor=none;fillColor=none;align=center;verticalAlign=middle;whiteSpace=wrap;rounded=0;" vertex="1" parent="1">
          <mxGeometry x="660" y="450" width="100" height="30" as="geometry" />
        </mxCell>
        <mxCell id="EkXlbH_kKpJiGOCdJ37Q-43" value="" style="endArrow=classic;html=1;rounded=0;exitX=0.184;exitY=0;exitDx=0;exitDy=0;entryX=0.5;entryY=1;entryDx=0;entryDy=0;exitPerimeter=0;" edge="1" parent="1" source="EkXlbH_kKpJiGOCdJ37Q-3" target="EkXlbH_kKpJiGOCdJ37Q-21">
          <mxGeometry width="50" height="50" relative="1" as="geometry">
            <mxPoint x="235" y="483" as="sourcePoint" />
            <mxPoint x="270" y="285" as="targetPoint" />
          </mxGeometry>
        </mxCell>
        <mxCell id="EkXlbH_kKpJiGOCdJ37Q-44" value="action" style="text;html=1;align=center;verticalAlign=middle;resizable=0;points=[];autosize=1;strokeColor=none;fillColor=none;rotation=-90;" vertex="1" parent="1">
          <mxGeometry x="280" y="380" width="60" height="30" as="geometry" />
        </mxCell>
        <mxCell id="EkXlbH_kKpJiGOCdJ37Q-45" value="" style="endArrow=classic;html=1;rounded=0;exitX=0.5;exitY=1;exitDx=0;exitDy=0;entryX=0.084;entryY=0.008;entryDx=0;entryDy=0;entryPerimeter=0;" edge="1" parent="1" source="EkXlbH_kKpJiGOCdJ37Q-20" target="EkXlbH_kKpJiGOCdJ37Q-3">
          <mxGeometry width="50" height="50" relative="1" as="geometry">
            <mxPoint x="210" y="252" as="sourcePoint" />
            <mxPoint x="205" y="450" as="targetPoint" />
          </mxGeometry>
        </mxCell>
        <mxCell id="EkXlbH_kKpJiGOCdJ37Q-46" value="update" style="text;html=1;align=center;verticalAlign=middle;resizable=0;points=[];autosize=1;strokeColor=none;fillColor=none;rotation=-90;" vertex="1" parent="1">
          <mxGeometry x="230" y="380" width="60" height="30" as="geometry" />
        </mxCell>
        <mxCell id="EkXlbH_kKpJiGOCdJ37Q-50" value="" style="rounded=0;whiteSpace=wrap;html=1;" vertex="1" parent="1">
          <mxGeometry x="880" y="160" width="540" height="150" as="geometry" />
        </mxCell>
        <mxCell id="EkXlbH_kKpJiGOCdJ37Q-51" value="Kotlin Multiplatform shared module" style="text;html=1;strokeColor=none;fillColor=none;align=center;verticalAlign=middle;whiteSpace=wrap;rounded=0;" vertex="1" parent="1">
          <mxGeometry x="1212.5" y="160" width="210" height="30" as="geometry" />
        </mxCell>
        <mxCell id="EkXlbH_kKpJiGOCdJ37Q-53" value="Mobile App" style="text;html=1;strokeColor=none;fillColor=none;align=center;verticalAlign=middle;whiteSpace=wrap;rounded=0;" vertex="1" parent="1">
          <mxGeometry x="1290" y="380" width="120" height="30" as="geometry" />
        </mxCell>
        <mxCell id="EkXlbH_kKpJiGOCdJ37Q-54" value="FeatureA" style="rounded=1;whiteSpace=wrap;html=1;fillColor=#dae8fc;strokeColor=#6c8ebf;" vertex="1" parent="1">
          <mxGeometry x="940" y="443" width="105" height="40" as="geometry" />
        </mxCell>
        <mxCell id="EkXlbH_kKpJiGOCdJ37Q-59" value="" style="rounded=0;whiteSpace=wrap;html=1;fillColor=#dae8fc;strokeColor=#6c8ebf;" vertex="1" parent="1">
          <mxGeometry x="920" y="205" width="150" height="75" as="geometry" />
        </mxCell>
        <mxCell id="EkXlbH_kKpJiGOCdJ37Q-62" value="AStore" style="text;html=1;strokeColor=none;fillColor=none;align=center;verticalAlign=middle;whiteSpace=wrap;rounded=0;" vertex="1" parent="1">
          <mxGeometry x="920" y="205" width="80" height="30" as="geometry" />
        </mxCell>
        <mxCell id="EkXlbH_kKpJiGOCdJ37Q-67" value="state" style="rounded=0;whiteSpace=wrap;html=1;fillColor=#f5f5f5;fontColor=#333333;strokeColor=#666666;" vertex="1" parent="1">
          <mxGeometry x="940" y="235" width="50" height="30" as="geometry" />
        </mxCell>
        <mxCell id="EkXlbH_kKpJiGOCdJ37Q-68" value="dipatch()" style="rounded=0;whiteSpace=wrap;html=1;fillColor=#f5f5f5;fontColor=#333333;strokeColor=#666666;" vertex="1" parent="1">
          <mxGeometry x="990" y="235" width="60" height="30" as="geometry" />
        </mxCell>
        <mxCell id="EkXlbH_kKpJiGOCdJ37Q-73" value="" style="endArrow=classic;html=1;rounded=0;exitX=0.75;exitY=0;exitDx=0;exitDy=0;entryX=0.5;entryY=1;entryDx=0;entryDy=0;" edge="1" parent="1" source="EkXlbH_kKpJiGOCdJ37Q-54" target="EkXlbH_kKpJiGOCdJ37Q-68">
          <mxGeometry width="50" height="50" relative="1" as="geometry">
            <mxPoint x="1050" y="410" as="sourcePoint" />
            <mxPoint x="1200" y="410" as="targetPoint" />
          </mxGeometry>
        </mxCell>
        <mxCell id="EkXlbH_kKpJiGOCdJ37Q-74" value="action" style="text;html=1;align=center;verticalAlign=middle;resizable=0;points=[];autosize=1;strokeColor=none;fillColor=none;rotation=-90;" vertex="1" parent="1">
          <mxGeometry x="970" y="330" width="60" height="30" as="geometry" />
        </mxCell>
        <mxCell id="EkXlbH_kKpJiGOCdJ37Q-75" value="" style="endArrow=classic;html=1;rounded=0;exitX=0.5;exitY=1;exitDx=0;exitDy=0;entryX=0.25;entryY=0;entryDx=0;entryDy=0;" edge="1" parent="1" source="EkXlbH_kKpJiGOCdJ37Q-67" target="EkXlbH_kKpJiGOCdJ37Q-54">
          <mxGeometry width="50" height="50" relative="1" as="geometry">
            <mxPoint x="1140" y="400" as="sourcePoint" />
            <mxPoint x="1290" y="400" as="targetPoint" />
          </mxGeometry>
        </mxCell>
        <mxCell id="EkXlbH_kKpJiGOCdJ37Q-76" value="update" style="text;html=1;align=center;verticalAlign=middle;resizable=0;points=[];autosize=1;strokeColor=none;fillColor=none;rotation=-90;" vertex="1" parent="1">
          <mxGeometry x="920" y="330" width="60" height="30" as="geometry" />
        </mxCell>
        <mxCell id="EkXlbH_kKpJiGOCdJ37Q-88" value="&lt;font style=&quot;font-size: 18px;&quot;&gt;Nested Multi Store&lt;/font&gt;" style="text;html=1;strokeColor=none;fillColor=none;align=center;verticalAlign=middle;whiteSpace=wrap;rounded=0;" vertex="1" parent="1">
          <mxGeometry x="390" y="100" width="200" height="30" as="geometry" />
        </mxCell>
        <mxCell id="EkXlbH_kKpJiGOCdJ37Q-89" value="&lt;font style=&quot;font-size: 18px;&quot;&gt;Flat Multi Store&lt;/font&gt;" style="text;html=1;strokeColor=none;fillColor=none;align=center;verticalAlign=middle;whiteSpace=wrap;rounded=0;" vertex="1" parent="1">
          <mxGeometry x="1070" y="100" width="200" height="30" as="geometry" />
        </mxCell>
        <mxCell id="EkXlbH_kKpJiGOCdJ37Q-90" value="" style="rounded=0;whiteSpace=wrap;html=1;fillColor=#d5e8d4;strokeColor=#82b366;" vertex="1" parent="1">
          <mxGeometry x="1085" y="205" width="150" height="75" as="geometry" />
        </mxCell>
        <mxCell id="EkXlbH_kKpJiGOCdJ37Q-91" value="BStore" style="text;html=1;strokeColor=none;fillColor=none;align=center;verticalAlign=middle;whiteSpace=wrap;rounded=0;" vertex="1" parent="1">
          <mxGeometry x="1085" y="205" width="80" height="30" as="geometry" />
        </mxCell>
        <mxCell id="EkXlbH_kKpJiGOCdJ37Q-92" value="state" style="rounded=0;whiteSpace=wrap;html=1;fillColor=#f5f5f5;fontColor=#333333;strokeColor=#666666;" vertex="1" parent="1">
          <mxGeometry x="1105" y="235" width="50" height="30" as="geometry" />
        </mxCell>
        <mxCell id="EkXlbH_kKpJiGOCdJ37Q-93" value="dipatch()" style="rounded=0;whiteSpace=wrap;html=1;fillColor=#f5f5f5;fontColor=#333333;strokeColor=#666666;" vertex="1" parent="1">
          <mxGeometry x="1155" y="235" width="60" height="30" as="geometry" />
        </mxCell>
        <mxCell id="EkXlbH_kKpJiGOCdJ37Q-94" value="" style="rounded=0;whiteSpace=wrap;html=1;fillColor=#e1d5e7;strokeColor=#9673a6;" vertex="1" parent="1">
          <mxGeometry x="1250" y="205" width="150" height="75" as="geometry" />
        </mxCell>
        <mxCell id="EkXlbH_kKpJiGOCdJ37Q-95" value="CStore" style="text;html=1;strokeColor=none;fillColor=none;align=center;verticalAlign=middle;whiteSpace=wrap;rounded=0;" vertex="1" parent="1">
          <mxGeometry x="1250" y="205" width="80" height="30" as="geometry" />
        </mxCell>
        <mxCell id="EkXlbH_kKpJiGOCdJ37Q-96" value="state" style="rounded=0;whiteSpace=wrap;html=1;fillColor=#f5f5f5;fontColor=#333333;strokeColor=#666666;" vertex="1" parent="1">
          <mxGeometry x="1270" y="235" width="50" height="30" as="geometry" />
        </mxCell>
        <mxCell id="EkXlbH_kKpJiGOCdJ37Q-97" value="dipatch()" style="rounded=0;whiteSpace=wrap;html=1;fillColor=#f5f5f5;fontColor=#333333;strokeColor=#666666;" vertex="1" parent="1">
          <mxGeometry x="1320" y="235" width="60" height="30" as="geometry" />
        </mxCell>
        <mxCell id="EkXlbH_kKpJiGOCdJ37Q-98" value="FeatureB" style="rounded=1;whiteSpace=wrap;html=1;fillColor=#d5e8d4;strokeColor=#82b366;" vertex="1" parent="1">
          <mxGeometry x="1107.5" y="443" width="105" height="40" as="geometry" />
        </mxCell>
        <mxCell id="EkXlbH_kKpJiGOCdJ37Q-99" value="FeatureC" style="rounded=1;whiteSpace=wrap;html=1;fillColor=#e1d5e7;strokeColor=#9673a6;" vertex="1" parent="1">
          <mxGeometry x="1275" y="444" width="105" height="40" as="geometry" />
        </mxCell>
        <mxCell id="EkXlbH_kKpJiGOCdJ37Q-104" value="Feature Main" style="text;html=1;strokeColor=none;fillColor=none;align=center;verticalAlign=middle;whiteSpace=wrap;rounded=0;" vertex="1" parent="1">
          <mxGeometry x="1280" y="410" width="120" height="30" as="geometry" />
        </mxCell>
        <mxCell id="EkXlbH_kKpJiGOCdJ37Q-107" value="" style="curved=1;endArrow=classic;html=1;rounded=0;exitX=0.75;exitY=1;exitDx=0;exitDy=0;entryX=0.5;entryY=-0.013;entryDx=0;entryDy=0;entryPerimeter=0;" edge="1" parent="1" source="EkXlbH_kKpJiGOCdJ37Q-59" target="EkXlbH_kKpJiGOCdJ37Q-100">
          <mxGeometry width="50" height="50" relative="1" as="geometry">
            <mxPoint x="1230" y="380" as="sourcePoint" />
            <mxPoint x="1280" y="330" as="targetPoint" />
            <Array as="points">
              <mxPoint x="1140" y="330" />
            </Array>
          </mxGeometry>
        </mxCell>
        <mxCell id="EkXlbH_kKpJiGOCdJ37Q-108" value="" style="curved=1;endArrow=classic;html=1;rounded=0;exitX=0.5;exitY=1;exitDx=0;exitDy=0;entryX=0.533;entryY=-0.013;entryDx=0;entryDy=0;entryPerimeter=0;" edge="1" parent="1" source="EkXlbH_kKpJiGOCdJ37Q-90" target="EkXlbH_kKpJiGOCdJ37Q-100">
          <mxGeometry width="50" height="50" relative="1" as="geometry">
            <mxPoint x="1163" y="290" as="sourcePoint" />
            <mxPoint x="1290" y="420" as="targetPoint" />
            <Array as="points">
              <mxPoint x="1190" y="340" />
            </Array>
          </mxGeometry>
        </mxCell>
        <mxCell id="EkXlbH_kKpJiGOCdJ37Q-109" value="" style="curved=1;endArrow=classic;html=1;rounded=0;exitX=0.25;exitY=1;exitDx=0;exitDy=0;entryX=0.568;entryY=-0.013;entryDx=0;entryDy=0;entryPerimeter=0;" edge="1" parent="1" source="EkXlbH_kKpJiGOCdJ37Q-94" target="EkXlbH_kKpJiGOCdJ37Q-100">
          <mxGeometry width="50" height="50" relative="1" as="geometry">
            <mxPoint x="1170" y="290" as="sourcePoint" />
            <mxPoint x="1186" y="419" as="targetPoint" />
            <Array as="points">
              <mxPoint x="1200" y="350" />
            </Array>
          </mxGeometry>
        </mxCell>
        <mxCell id="EkXlbH_kKpJiGOCdJ37Q-110" value="inject" style="text;html=1;strokeColor=none;fillColor=none;align=center;verticalAlign=middle;whiteSpace=wrap;rounded=0;rotation=-90;" vertex="1" parent="1">
          <mxGeometry x="1080" y="340" width="60" height="30" as="geometry" />
        </mxCell>
        <mxCell id="EkXlbH_kKpJiGOCdJ37Q-111" value="inject" style="text;html=1;strokeColor=none;fillColor=none;align=center;verticalAlign=middle;whiteSpace=wrap;rounded=0;rotation=-90;" vertex="1" parent="1">
          <mxGeometry x="1140" y="340" width="60" height="30" as="geometry" />
        </mxCell>
        <mxCell id="EkXlbH_kKpJiGOCdJ37Q-112" value="inject" style="text;html=1;strokeColor=none;fillColor=none;align=center;verticalAlign=middle;whiteSpace=wrap;rounded=0;rotation=-90;" vertex="1" parent="1">
          <mxGeometry x="1165" y="340" width="60" height="30" as="geometry" />
        </mxCell>
        <mxCell id="EkXlbH_kKpJiGOCdJ37Q-113" value="" style="curved=1;endArrow=classic;html=1;rounded=0;exitX=0.5;exitY=0;exitDx=0;exitDy=0;entryX=1;entryY=0.5;entryDx=0;entryDy=0;" edge="1" parent="1" source="EkXlbH_kKpJiGOCdJ37Q-100" target="EkXlbH_kKpJiGOCdJ37Q-54">
          <mxGeometry width="50" height="50" relative="1" as="geometry">
            <mxPoint x="1043" y="290" as="sourcePoint" />
            <mxPoint x="1170" y="419" as="targetPoint" />
            <Array as="points">
              <mxPoint x="1110" y="440" />
            </Array>
          </mxGeometry>
        </mxCell>
        <mxCell id="EkXlbH_kKpJiGOCdJ37Q-114" value="" style="curved=1;endArrow=classic;html=1;rounded=0;exitX=0.532;exitY=0.009;exitDx=0;exitDy=0;exitPerimeter=0;" edge="1" parent="1" source="EkXlbH_kKpJiGOCdJ37Q-100" target="EkXlbH_kKpJiGOCdJ37Q-98">
          <mxGeometry width="50" height="50" relative="1" as="geometry">
            <mxPoint x="1053" y="300" as="sourcePoint" />
            <mxPoint x="1180" y="429" as="targetPoint" />
            <Array as="points" />
          </mxGeometry>
        </mxCell>
        <mxCell id="EkXlbH_kKpJiGOCdJ37Q-115" value="" style="curved=1;endArrow=classic;html=1;rounded=0;exitX=0.568;exitY=-0.004;exitDx=0;exitDy=0;entryX=0;entryY=0.5;entryDx=0;entryDy=0;exitPerimeter=0;" edge="1" parent="1" source="EkXlbH_kKpJiGOCdJ37Q-100" target="EkXlbH_kKpJiGOCdJ37Q-99">
          <mxGeometry width="50" height="50" relative="1" as="geometry">
            <mxPoint x="1063" y="310" as="sourcePoint" />
            <mxPoint x="1190" y="439" as="targetPoint" />
            <Array as="points">
              <mxPoint x="1220" y="450" />
            </Array>
          </mxGeometry>
        </mxCell>
        <mxCell id="EkXlbH_kKpJiGOCdJ37Q-116" value="&lt;font style=&quot;font-size: 9px;&quot;&gt;AStore&lt;/font&gt;" style="text;html=1;strokeColor=none;fillColor=none;align=center;verticalAlign=middle;whiteSpace=wrap;rounded=0;rotation=0;" vertex="1" parent="1">
          <mxGeometry x="1080" y="410" width="60" height="30" as="geometry" />
        </mxCell>
        <mxCell id="EkXlbH_kKpJiGOCdJ37Q-117" value="&lt;font style=&quot;font-size: 9px;&quot;&gt;BStore&lt;/font&gt;" style="text;html=1;strokeColor=none;fillColor=none;align=center;verticalAlign=middle;whiteSpace=wrap;rounded=0;rotation=0;" vertex="1" parent="1">
          <mxGeometry x="1125" y="410" width="60" height="30" as="geometry" />
        </mxCell>
        <mxCell id="EkXlbH_kKpJiGOCdJ37Q-118" value="&lt;font style=&quot;font-size: 9px;&quot;&gt;CStore&lt;/font&gt;" style="text;html=1;strokeColor=none;fillColor=none;align=center;verticalAlign=middle;whiteSpace=wrap;rounded=0;rotation=0;" vertex="1" parent="1">
          <mxGeometry x="1158" y="410" width="60" height="30" as="geometry" />
        </mxCell>
        <mxCell id="EkXlbH_kKpJiGOCdJ37Q-119" value="" style="curved=1;endArrow=classic;html=1;rounded=0;entryX=0.5;entryY=0;entryDx=0;entryDy=0;exitX=0.5;exitY=0;exitDx=0;exitDy=0;" edge="1" parent="1" source="EkXlbH_kKpJiGOCdJ37Q-68" target="EkXlbH_kKpJiGOCdJ37Q-93">
          <mxGeometry width="50" height="50" relative="1" as="geometry">
            <mxPoint x="898.3333333333334" y="100" as="sourcePoint" />
            <mxPoint x="560" y="255" as="targetPoint" />
            <Array as="points">
              <mxPoint x="1130" y="160" />
            </Array>
          </mxGeometry>
        </mxCell>
        <mxCell id="EkXlbH_kKpJiGOCdJ37Q-120" value="action" style="text;html=1;align=center;verticalAlign=middle;resizable=0;points=[];autosize=1;strokeColor=none;fillColor=none;rotation=0;" vertex="1" parent="1">
          <mxGeometry x="1089" y="164" width="60" height="30" as="geometry" />
        </mxCell>
        <mxCell id="EkXlbH_kKpJiGOCdJ37Q-121" value="" style="curved=1;endArrow=classic;html=1;rounded=0;exitX=0;exitY=0;exitDx=0;exitDy=0;entryX=0;entryY=0.5;entryDx=0;entryDy=0;" edge="1" parent="1" source="EkXlbH_kKpJiGOCdJ37Q-3" target="EkXlbH_kKpJiGOCdJ37Q-5">
          <mxGeometry width="50" height="50" relative="1" as="geometry">
            <mxPoint x="330" y="514" as="sourcePoint" />
            <mxPoint x="215" y="567" as="targetPoint" />
            <Array as="points">
              <mxPoint x="310" y="480" />
            </Array>
          </mxGeometry>
        </mxCell>
        <mxCell id="EkXlbH_kKpJiGOCdJ37Q-122" value="&lt;font style=&quot;font-size: 9px;&quot;&gt;AStore&lt;/font&gt;" style="text;html=1;strokeColor=none;fillColor=none;align=center;verticalAlign=middle;whiteSpace=wrap;rounded=0;rotation=0;" vertex="1" parent="1">
          <mxGeometry x="270" y="473" width="60" height="30" as="geometry" />
        </mxCell>
        <mxCell id="EkXlbH_kKpJiGOCdJ37Q-123" value="" style="curved=1;endArrow=classic;html=1;rounded=0;exitX=0;exitY=0;exitDx=0;exitDy=0;entryX=0.5;entryY=1;entryDx=0;entryDy=0;" edge="1" parent="1" target="EkXlbH_kKpJiGOCdJ37Q-6">
          <mxGeometry width="50" height="50" relative="1" as="geometry">
            <mxPoint x="270" y="450" as="sourcePoint" />
            <mxPoint x="350" y="493" as="targetPoint" />
            <Array as="points">
              <mxPoint x="260" y="570" />
            </Array>
          </mxGeometry>
        </mxCell>
        <mxCell id="EkXlbH_kKpJiGOCdJ37Q-124" value="&lt;font style=&quot;font-size: 9px;&quot;&gt;BStore&lt;/font&gt;" style="text;html=1;strokeColor=none;fillColor=none;align=center;verticalAlign=middle;whiteSpace=wrap;rounded=0;rotation=0;" vertex="1" parent="1">
          <mxGeometry x="315" y="526" width="60" height="30" as="geometry" />
        </mxCell>
        <mxCell id="EkXlbH_kKpJiGOCdJ37Q-125" value="" style="curved=1;endArrow=classic;html=1;rounded=0;exitX=0.75;exitY=1;exitDx=0;exitDy=0;entryX=0.5;entryY=1;entryDx=0;entryDy=0;" edge="1" parent="1" source="EkXlbH_kKpJiGOCdJ37Q-6" target="EkXlbH_kKpJiGOCdJ37Q-8">
          <mxGeometry width="50" height="50" relative="1" as="geometry">
            <mxPoint x="280" y="460" as="sourcePoint" />
            <mxPoint x="360" y="503" as="targetPoint" />
            <Array as="points">
              <mxPoint x="570" y="550" />
            </Array>
          </mxGeometry>
        </mxCell>
        <mxCell id="EkXlbH_kKpJiGOCdJ37Q-126" value="&lt;font style=&quot;font-size: 9px;&quot;&gt;CStore&lt;/font&gt;" style="text;html=1;strokeColor=none;fillColor=none;align=center;verticalAlign=middle;whiteSpace=wrap;rounded=0;rotation=0;" vertex="1" parent="1">
          <mxGeometry x="545" y="526" width="60" height="30" as="geometry" />
        </mxCell>
        <mxCell id="EkXlbH_kKpJiGOCdJ37Q-173" value="" style="rounded=0;whiteSpace=wrap;html=1;" vertex="1" parent="1">
          <mxGeometry x="-460" y="380" width="500" height="130" as="geometry" />
        </mxCell>
        <mxCell id="EkXlbH_kKpJiGOCdJ37Q-174" value="" style="rounded=0;whiteSpace=wrap;html=1;fillColor=#fff2cc;strokeColor=#d6b656;" vertex="1" parent="1">
          <mxGeometry x="-450" y="410" width="480" height="90" as="geometry" />
        </mxCell>
        <mxCell id="EkXlbH_kKpJiGOCdJ37Q-175" value="" style="rounded=0;whiteSpace=wrap;html=1;" vertex="1" parent="1">
          <mxGeometry x="-490" y="167.5" width="530" height="150" as="geometry" />
        </mxCell>
        <mxCell id="EkXlbH_kKpJiGOCdJ37Q-176" value="Kotlin Multiplatform shared module" style="text;html=1;strokeColor=none;fillColor=none;align=center;verticalAlign=middle;whiteSpace=wrap;rounded=0;" vertex="1" parent="1">
          <mxGeometry x="-490" y="167.5" width="210" height="30" as="geometry" />
        </mxCell>
        <mxCell id="EkXlbH_kKpJiGOCdJ37Q-177" value="Mobile App" style="text;html=1;strokeColor=none;fillColor=none;align=center;verticalAlign=middle;whiteSpace=wrap;rounded=0;" vertex="1" parent="1">
          <mxGeometry x="-50" y="380" width="90" height="30" as="geometry" />
        </mxCell>
        <mxCell id="EkXlbH_kKpJiGOCdJ37Q-178" value="FeatureA" style="rounded=1;whiteSpace=wrap;html=1;fillColor=#dae8fc;strokeColor=#6c8ebf;" vertex="1" parent="1">
          <mxGeometry x="-430" y="443" width="105" height="40" as="geometry" />
        </mxCell>
        <mxCell id="EkXlbH_kKpJiGOCdJ37Q-179" value="" style="rounded=0;whiteSpace=wrap;html=1;" vertex="1" parent="1">
          <mxGeometry x="-450" y="212.5" width="440" height="75" as="geometry" />
        </mxCell>
        <mxCell id="EkXlbH_kKpJiGOCdJ37Q-180" value="AStore" style="text;html=1;strokeColor=none;fillColor=none;align=center;verticalAlign=middle;whiteSpace=wrap;rounded=0;" vertex="1" parent="1">
          <mxGeometry x="-450" y="212.5" width="80" height="30" as="geometry" />
        </mxCell>
        <mxCell id="EkXlbH_kKpJiGOCdJ37Q-181" value="state" style="rounded=0;whiteSpace=wrap;html=1;fillColor=#f5f5f5;fontColor=#333333;strokeColor=#666666;" vertex="1" parent="1">
          <mxGeometry x="-430" y="242.5" width="170" height="30" as="geometry" />
        </mxCell>
        <mxCell id="EkXlbH_kKpJiGOCdJ37Q-182" value="dipatch()" style="rounded=0;whiteSpace=wrap;html=1;fillColor=#f5f5f5;fontColor=#333333;strokeColor=#666666;" vertex="1" parent="1">
          <mxGeometry x="-230" y="242.5" width="200" height="30" as="geometry" />
        </mxCell>
        <mxCell id="EkXlbH_kKpJiGOCdJ37Q-183" value="" style="endArrow=classic;html=1;rounded=0;exitX=0.657;exitY=-0.021;exitDx=0;exitDy=0;entryX=0.5;entryY=1;entryDx=0;entryDy=0;exitPerimeter=0;" edge="1" parent="1" source="EkXlbH_kKpJiGOCdJ37Q-173" target="EkXlbH_kKpJiGOCdJ37Q-182">
          <mxGeometry width="50" height="50" relative="1" as="geometry">
            <mxPoint x="-320" y="410" as="sourcePoint" />
            <mxPoint x="-170" y="410" as="targetPoint" />
          </mxGeometry>
        </mxCell>
        <mxCell id="EkXlbH_kKpJiGOCdJ37Q-184" value="action" style="text;html=1;align=center;verticalAlign=middle;resizable=0;points=[];autosize=1;strokeColor=none;fillColor=none;rotation=-90;" vertex="1" parent="1">
          <mxGeometry x="-180" y="340" width="60" height="30" as="geometry" />
        </mxCell>
        <mxCell id="EkXlbH_kKpJiGOCdJ37Q-185" value="" style="endArrow=classic;html=1;rounded=0;exitX=0.5;exitY=1;exitDx=0;exitDy=0;entryX=0.229;entryY=-0.015;entryDx=0;entryDy=0;entryPerimeter=0;" edge="1" parent="1" source="EkXlbH_kKpJiGOCdJ37Q-181" target="EkXlbH_kKpJiGOCdJ37Q-173">
          <mxGeometry width="50" height="50" relative="1" as="geometry">
            <mxPoint x="-230" y="400" as="sourcePoint" />
            <mxPoint x="-80" y="400" as="targetPoint" />
          </mxGeometry>
        </mxCell>
        <mxCell id="EkXlbH_kKpJiGOCdJ37Q-186" value="update" style="text;html=1;align=center;verticalAlign=middle;resizable=0;points=[];autosize=1;strokeColor=none;fillColor=none;rotation=-90;" vertex="1" parent="1">
          <mxGeometry x="-420" y="340" width="60" height="30" as="geometry" />
        </mxCell>
        <mxCell id="EkXlbH_kKpJiGOCdJ37Q-187" value="&lt;font style=&quot;font-size: 18px;&quot;&gt;SingleStore&lt;/font&gt;" style="text;html=1;strokeColor=none;fillColor=none;align=center;verticalAlign=middle;whiteSpace=wrap;rounded=0;" vertex="1" parent="1">
          <mxGeometry x="-300" y="100" width="200" height="30" as="geometry" />
        </mxCell>
        <mxCell id="EkXlbH_kKpJiGOCdJ37Q-196" value="FeatureB" style="rounded=1;whiteSpace=wrap;html=1;fillColor=#d5e8d4;strokeColor=#82b366;" vertex="1" parent="1">
          <mxGeometry x="-262.5" y="443" width="105" height="40" as="geometry" />
        </mxCell>
        <mxCell id="EkXlbH_kKpJiGOCdJ37Q-197" value="FeatureC" style="rounded=1;whiteSpace=wrap;html=1;fillColor=#e1d5e7;strokeColor=#9673a6;" vertex="1" parent="1">
          <mxGeometry x="-95" y="444" width="105" height="40" as="geometry" />
        </mxCell>
        <mxCell id="EkXlbH_kKpJiGOCdJ37Q-198" value="Feature Main" style="text;html=1;strokeColor=none;fillColor=none;align=center;verticalAlign=middle;whiteSpace=wrap;rounded=0;" vertex="1" parent="1">
          <mxGeometry x="-90" y="410" width="120" height="30" as="geometry" />
        </mxCell>
        <mxCell id="EkXlbH_kKpJiGOCdJ37Q-199" value="" style="curved=1;endArrow=classic;html=1;rounded=0;exitX=0.58;exitY=0.987;exitDx=0;exitDy=0;entryX=0.25;entryY=0;entryDx=0;entryDy=0;exitPerimeter=0;" edge="1" parent="1" source="EkXlbH_kKpJiGOCdJ37Q-179">
          <mxGeometry width="50" height="50" relative="1" as="geometry">
            <mxPoint x="-140" y="380" as="sourcePoint" />
            <mxPoint x="-195" y="410" as="targetPoint" />
            <Array as="points" />
          </mxGeometry>
        </mxCell>
        <mxCell id="EkXlbH_kKpJiGOCdJ37Q-217" value="inject" style="text;html=1;align=center;verticalAlign=middle;resizable=0;points=[];autosize=1;strokeColor=none;fillColor=none;rotation=-90;" vertex="1" parent="1">
          <mxGeometry x="-235" y="340" width="50" height="30" as="geometry" />
        </mxCell>
      </root>
    </mxGraphModel>
  </diagram>
</mxfile>
